<?xml version="1.0" encoding="UTF-8"?>
<svg enable-background="new 0 0 243.478 173.188" viewBox="0 0 243.478 173.188" xmlns="http://www.w3.org/2000/svg">
 <path d="m64.317 99.286 7.483 0.535s80.185-60.405 135.25 3.743c0 0-0.533 8.019-4.275 5.879 0 0 10.157 3.207 3.207 9.622 0 0-38.488 28.867-64.148 25.124l-7.485 5.882-13.897-10.693s-27.797 18.177-32.074 15.505c0 0-7.484-33.143-21.384-32.609 0 0 2.675-9.623 6.95-8.555s-6.414-0.532-6.414-0.532-27.264 20.848-29.938 14.434l1.07-47.043c0-1e-3 24.055 13.897 25.659 18.708z" fill="none" stroke="#000" stroke-miterlimit="10"/>
 <path d="m104.66 51.587s-9.601 22.739-21.946 28.586l-5.039 8.125 7.84 2.33s39.359-19.473 44.439-16.325-13.919-23.821-25.294-22.716z" fill="none" stroke="#000" stroke-miterlimit="10"/>
 <path d="m151.45 122.27s-16.037-0.536-17.641-10.158-0.534-2.136-0.534-2.136 3.206-10.693 11.76-6.951" fill="none" stroke="#000" stroke-miterlimit="10"/>
 <path d="m187.343,99.407c-.913-.953-1.308-2.125-1.969-3.236-.79-1.328-2.278-1.951-3.704-2.332-.461-.123-1.547.044-1.537.722 .022,1.424.187,2.766 1.298,3.752 .912.809 2.171,1.078 3.072,1.941 .625.598 2.45-.196 1.77-.848-.84-.804-1.779-1.27-2.785-1.821-1.208-.661-1.379-1.893-1.397-3.176l-1.537.722c1.412.377 2.52.91 3.24,2.217 .566,1.025.952,2.041 1.78,2.906 .6.628 2.431-.155 1.769-.847z"/>
</svg>
